# xmcd CD database file
#
# Track frame offsets:
#	150
#	16855
#	37300
#	72202
#	85285
#	99935
#	118167
#	135122
#	157925
#
# Disc length: 2435 seconds
#
# Revision: 6
# Processed by: cddbd v1.5.2PL0 Copyright (c) Steve Scherf et al.
# Submitted via: CDex 1.51
#
DISCID=68098109
DTITLE=Black Sabbath - Mob Rules
DYEAR=1981
DGENRE=Heavy Metal
TTITLE0=Turn Up The Night
TTITLE1=Voodoo
TTITLE2=The Sign Of The Southern Cross
TTITLE3=E5150
TTITLE4=The Mob Rules
TTITLE5=Country Girl
TTITLE6=Slipping Away
TTITLE7=Falling Off The Edge Of The World
TTITLE8=Over And Over
EXTD=YEAR: 1981
EXTT0=
EXTT1=
EXTT2=
EXTT3=
EXTT4=
EXTT5=
EXTT6=
EXTT7=
EXTT8=
PLAYORDER=
